<svg width="30" height="30" viewBox="0 0 30 30" fill="none" xmlns="http://www.w3.org/2000/svg">
<path d="M11.5863 22.4236C11.6675 22.5046 11.7772 22.5499 11.8917 22.5499C11.8958 22.5499 11.9 22.5499 11.9038 22.5499C12.0228 22.5467 12.1345 22.4945 12.2137 22.4058L25.3217 7.72415C25.4806 7.54623 25.4652 7.27312 25.287 7.11447C25.1091 6.95553 24.836 6.97125 24.6773 7.14887L11.8736 21.4898L5.11619 14.7339C4.94746 14.5652 4.67406 14.5652 4.50563 14.7339C4.3369 14.9026 4.3369 15.176 4.50563 15.3448L11.5863 22.4236Z" fill="#474BC8"/>
<path d="M29.2213 0H0.431753C0.19334 0 0 0.19334 0 0.432049V29.5679C0 29.8067 0.19334 30 0.431753 30H29.2213C29.46 30 29.6531 29.8067 29.6531 29.5679V0.432049C29.6531 0.19334 29.46 0 29.2213 0ZM28.7895 29.1359H0.863506V0.863506H28.7895V29.1359Z" fill="#474BC8"/>
</svg>
